<?xml version="1.0" encoding="UTF-8"?>
<!DOCTYPE svg PUBLIC "-//W3C//DTD SVG 1.1//EN" "http://www.w3.org/Graphics/SVG/1.1/DTD/svg11.dtd">
<!-- Creator: CorelDRAW -->
<svg xmlns="http://www.w3.org/2000/svg" xml:space="preserve" width="43.3492mm" height="43.3492mm" version="1.1" style="shape-rendering:geometricPrecision; text-rendering:geometricPrecision; image-rendering:optimizeQuality; fill-rule:evenodd; clip-rule:evenodd"
viewBox="0 0 4334.92 4334.92"
 xmlns:xlink="http://www.w3.org/1999/xlink"
 xmlns:xodm="http://www.corel.com/coreldraw/odm/2003">
 <defs>
  <style type="text/css">
   <![CDATA[
    .fil0 {fill:black}
    .fil2 {fill:white}
    .fil1 {fill:white;fill-rule:nonzero}
   ]]>
  </style>
 </defs>
 <g id="Layer_x0020_1">
  <metadata id="CorelCorpID_0Corel-Layer"/>
  <rect class="fil0" x="-0.01" y="-0.01" width="4334.93" height="4334.93"/>
 </g>
 <g id="Layer_x0020_1_0">
  <metadata id="CorelCorpID_1Corel-Layer"/>
  <g id="_2298395191216">
   <path class="fil1" d="M214.88 1169.42l0 -1005.67 -58.66 0c-6.62,-3.06 -9.93,-6.13 -9.93,-8.72 0,-2.36 3.31,-5.19 9.62,-8.25l269.54 0c6.32,3.06 9.62,5.89 9.62,8.25 0,2.59 -3.3,5.66 -10.22,8.72l-29.49 0 0 472.42 115.52 0 0 -472.42 -37.3 0c-6.31,-3.06 -9.63,-6.13 -9.63,-8.72 0,-2.83 3.32,-5.66 9.63,-8.25l271.33 0c6.31,3.06 9.63,5.89 9.63,8.25 0,2.59 -3.32,5.66 -9.93,8.72l-53.25 0 0 1005.67 53.55 0c2.72,0 5.42,0.7 7.82,2.35 2.41,1.42 3.61,3.54 3.61,6.13 0,2.6 -1.2,4.72 -3.61,6.13 -2.4,1.65 -4.81,2.36 -7.82,2.36l-263.21 0c-3.01,0 -5.41,-0.71 -7.52,-2.36 -2.1,-1.41 -3.01,-3.53 -3.01,-6.13 0,-2.59 1.2,-4.71 3.31,-6.13 2.1,-1.65 4.51,-2.35 7.52,-2.35l28.88 0 0 -516.27 -115.52 0 0 516.27 34.6 0c3.01,0 5.42,0.7 7.52,2.35 2.11,1.42 3,3.54 3,6.13 0,2.6 -0.89,4.72 -3,6.13 -2.1,1.65 -4.51,2.36 -7.52,2.36l-274.05 0c-6.31,-3.06 -9.62,-5.89 -9.62,-8.49 0,-2.59 3.31,-5.42 9.93,-8.48l58.66 0z"/>
   <path id="_1" class="fil1" d="M1274.04 162.34l93.55 0 155.83 1007.08 39.7 0c6.33,3.06 9.63,5.89 9.63,8.48 0,2.6 -3.3,5.43 -9.63,8.49l-263.81 0c-3.01,0 -5.12,-0.71 -6.92,-2.36 -1.81,-1.41 -2.7,-3.53 -2.7,-6.13 0,-2.59 0.89,-4.71 2.7,-6.13 1.8,-1.65 4.21,-2.35 6.92,-2.35l42.72 0 -24.37 -196.61 -160.94 0 -18.65 110.56c-0.3,5.9 -0.6,12.02 -0.6,18.39 0,20.04 4.81,35.12 15.04,45.5 9.93,10.13 23.76,16.5 41.22,18.62l14.74 3.54c2.4,1.88 3.61,4.48 3.61,7.3 0,3.07 -0.91,5.43 -3.01,7.08 -2.11,1.65 -4.81,2.59 -7.52,2.59l-151.62 0c-2.7,0 -5.41,-0.94 -7.51,-2.59 -1.82,-1.65 -3.02,-4.01 -3.02,-7.08 0,-2.82 0.91,-5.42 2.71,-7.3l10.53 -2.83c17.15,-1.65 30.38,-7.55 39.71,-17.68 14.14,-16.03 24.06,-42.44 30.09,-79.21l151.6 -907.36zm-24.97 257.42l-89.34 534.66 155.53 0 -66.19 -534.66z"/>
   <path id="_2" class="fil1" d="M1922.9 163.75l-51.75 0c-6.31,-2.83 -9.62,-5.66 -9.62,-8.72 0,-2.83 3.31,-5.66 9.62,-8.25l277.35 0c68.59,0 128.15,22.86 178.68,68.83 50.55,45.97 75.81,108.68 75.81,187.89 0,45.73 -9.63,86.28 -29.18,121.88 -19.26,35.59 -48.13,64.82 -86.34,87.93 -22.85,13.9 -58.64,27.11 -106.78,40.07 53.55,12.5 90.84,24.52 111.9,36.07 35.5,19.1 61.96,42.43 79.11,69.54 17.15,27.11 25.88,62.47 25.88,105.61l0 252.48c0,11.55 2.4,19.57 7.21,24.28 4.52,4.48 10.83,6.84 18.35,6.84 11.74,0 22.56,-5.66 31.89,-17.21 15.34,-18.39 24.97,-51.63 29.18,-99.25 0.6,-8.25 2.4,-13.9 5.12,-16.5 2.7,-2.83 5.41,-4.24 8.42,-4.24 3.61,0 6.61,1.65 9.02,4.71 3.01,3.78 4.52,10.61 4.52,20.75 0,50.92 -15.64,90.29 -47.24,118.11 -31.28,27.81 -70.69,41.72 -118.21,41.72 -42.42,0 -74.31,-8.49 -96.27,-25.46 -21.65,-16.97 -32.48,-41.25 -32.48,-72.61l0 -364.92c0,-31.12 -9.93,-52.1 -30.08,-62.71 -12.03,-5.89 -39.71,-8.96 -83.63,-8.96l0 507.79 43.01 0c4.52,0 8.13,0.94 10.84,2.59 2.7,1.65 3.9,3.77 3.9,5.89 0,2.13 -1.2,4.25 -3.9,5.9 -2.71,1.65 -6.32,2.59 -11.13,2.59l-277.65 0c-3.61,0 -6.32,-0.71 -8.73,-2.36 -2.4,-1.41 -3.61,-3.53 -3.61,-6.13 0,-2.59 1.21,-4.71 3.61,-6.13 2.41,-1.65 5.42,-2.35 9.33,-2.35l53.85 0 0 -1005.67zm180.48 1.41l0 478.09 43.61 0c20.76,0 37.61,-5.43 50.55,-16.51 12.94,-11.08 19.55,-27.34 19.55,-48.32l0 -358.56c0,-20.75 -4.81,-35.13 -14.14,-42.91 -9.62,-7.78 -28.28,-11.79 -55.96,-11.79l-43.61 0z"/>
   <path id="_3" class="fil1" d="M2927.3 1126.51c-20.15,11.08 -40.6,24.75 -61.67,41.02 -20.75,16.27 -33.68,24.52 -38.19,24.52 -1.81,0 -3.32,-0.71 -4.52,-2.12 -1.2,-1.42 -1.8,-4.25 -1.8,-8.96l0 -434c0,-1.65 0.9,-3.3 2.4,-4.48 1.51,-1.18 3.01,-1.65 4.81,-1.65 3.02,0 5.72,1.42 8.13,4.24 4.21,4.01 6.32,8.73 6.32,13.68l0 29.7c0,57.76 11.43,123.29 34.59,197.08 22.87,73.79 53.24,126.12 90.24,157.47 18.35,15.8 39.71,23.58 63.78,23.58 27.97,0 52.04,-10.14 72.8,-30.65 20.75,-20.51 30.98,-51.63 30.98,-93.12 0,-39.6 -9.33,-81.56 -28.28,-125.65 -24.66,-59.17 -79.71,-153.7 -164.54,-283.83 -53.25,-81.09 -86.94,-139.79 -101.38,-175.86 -14.44,-36.3 -21.66,-71.43 -21.66,-105.61 0,-67.66 20.46,-120.7 61.37,-158.89 40.91,-38.42 87.53,-57.52 139.88,-57.52 44.52,0 84.83,18.62 120.62,56.11 29.49,-12.5 58.06,-28.06 85.74,-46.44 9.33,-6.37 15.64,-9.67 18.35,-9.67 1.2,0 2.4,0.47 3.61,1.42 1.2,1.88 1.8,4.95 1.8,9.66l0 375.3c0,5.19 -1.51,9.43 -4.51,12.49 -1.5,1.89 -3.91,2.83 -6.93,2.83 -3.59,0 -6.31,-1.18 -7.82,-3.53 -1.8,-2.13 -5.41,-18.86 -10.53,-49.75 -24.06,-143.56 -56.24,-238.8 -95.95,-285.24 -23.76,-26.17 -50.24,-39.13 -80.32,-39.13 -22.25,0 -41.51,7.78 -58.06,23.57 -16.53,15.56 -24.66,38.66 -24.66,68.84 0,54.92 40.01,144.98 119.73,270.15l77.61 122.59c53.54,84.16 89.04,151.11 106.48,200.38 17.75,49.5 26.47,93.82 26.47,132.96 0,68.12 -21.35,121.64 -64.37,160.3 -43.01,38.66 -93.56,57.99 -151.31,57.99 -62.58,0 -112.2,-23.34 -149.21,-69.78z"/>
   <path id="_4" class="fil1" d="M3657.99 1169.42l0 -1005.67 -58.66 0c-6.62,-3.06 -9.93,-6.13 -9.93,-8.72 0,-2.36 3.31,-5.19 9.62,-8.25l269.54 0c6.32,3.06 9.62,5.89 9.62,8.25 0,2.59 -3.3,5.66 -10.22,8.72l-29.49 0 0 472.42 115.52 0 0 -472.42 -37.3 0c-6.31,-3.06 -9.63,-6.13 -9.63,-8.72 0,-2.83 3.32,-5.66 9.63,-8.25l271.33 0c6.31,3.06 9.63,5.89 9.63,8.25 0,2.59 -3.32,5.66 -9.93,8.72l-53.25 0 0 1005.67 53.55 0c2.71,0 5.42,0.7 7.82,2.35 2.41,1.42 3.61,3.54 3.61,6.13 0,2.6 -1.2,4.72 -3.61,6.13 -2.4,1.65 -4.81,2.36 -7.82,2.36l-263.21 0c-3.01,0 -5.41,-0.71 -7.52,-2.36 -2.1,-1.41 -3.01,-3.53 -3.01,-6.13 0,-2.59 1.2,-4.71 3.31,-6.13 2.1,-1.65 4.51,-2.35 7.52,-2.35l28.88 0 0 -516.27 -115.52 0 0 516.27 34.59 0c3.02,0 5.43,0.7 7.53,2.35 2.11,1.42 3,3.54 3,6.13 0,2.6 -0.89,4.72 -3,6.13 -2.1,1.65 -4.51,2.36 -7.53,2.36l-274.04 0c-6.31,-3.06 -9.62,-5.89 -9.62,-8.49 0,-2.59 3.31,-5.42 9.93,-8.48l58.66 0z"/>
   <path id="_5" class="fil1" d="M202.25 2302.09l0 -1005.67 -57.16 0c-6.31,-3.06 -9.63,-6.13 -9.63,-8.72 0,-2.36 3.32,-5.19 9.63,-8.25l259 0c79.42,0 144.4,21.68 195.23,64.83 50.54,43.37 75.8,104.19 75.8,182.46 0,47.85 -8.71,89.11 -25.86,124 -17.15,34.65 -43.62,63.88 -80.03,87.22 -22.56,14.85 -56.84,28.76 -102.87,42.2 47.83,13.91 83.02,27.82 105.58,42.2 36.41,23.57 63.78,52.09 82.43,85.33 18.65,33.48 27.97,74.73 27.97,123.53 0,63.18 -13.83,119.29 -41.21,168.08 -18.65,34.19 -49.63,62.71 -92.35,85.58 -42.71,22.86 -93.85,34.18 -153.42,34.18l-250.27 0c-6.31,-3.06 -9.63,-5.89 -9.63,-8.49 0,-2.59 3.32,-5.42 9.63,-8.48l57.16 0zm180.48 -1004.26l0 473.84 46.93 0c21.36,0 37.3,-4.24 47.53,-12.49 10.53,-8.25 15.64,-21.93 15.64,-41.26l0 -359.5c0,-23.34 -5.41,-39.37 -15.94,-47.86 -10.84,-8.48 -31.29,-12.73 -62.27,-12.73l-31.89 0zm0 492.23l0 510.61 28.28 0c24.97,0 44.82,-5.42 59.56,-16.5 14.74,-11.08 22.26,-26.17 22.26,-45.03l0 -401.46c0,-16.97 -4.22,-29.23 -12.93,-36.54 -8.42,-7.31 -21.96,-11.08 -40.31,-11.08l-56.86 0z"/>
   <path id="_6" class="fil1" d="M792.75 1296.42l-51.75 0c-6.31,-2.83 -9.62,-5.66 -9.62,-8.72 0,-2.83 3.31,-5.66 9.62,-8.25l277.35 0c68.59,0 128.15,22.86 178.68,68.83 50.55,45.97 75.81,108.68 75.81,187.89 0,45.73 -9.63,86.28 -29.18,121.88 -19.26,35.59 -48.13,64.82 -86.34,87.93 -22.85,13.9 -58.64,27.11 -106.78,40.07 53.55,12.5 90.85,24.52 111.9,36.07 35.5,19.1 61.96,42.43 79.11,69.54 17.15,27.11 25.88,62.47 25.88,105.61l0 252.48c0,11.55 2.4,19.57 7.21,24.28 4.52,4.48 10.84,6.84 18.35,6.84 11.74,0 22.56,-5.66 31.89,-17.21 15.34,-18.39 24.97,-51.63 29.18,-99.25 0.6,-8.25 2.4,-13.9 5.12,-16.5 2.7,-2.83 5.41,-4.24 8.42,-4.24 3.61,0 6.61,1.65 9.02,4.71 3.01,3.78 4.52,10.61 4.52,20.75 0,50.92 -15.64,90.29 -47.24,118.11 -31.27,27.81 -70.69,41.72 -118.21,41.72 -42.42,0 -74.3,-8.49 -96.27,-25.46 -21.65,-16.97 -32.48,-41.25 -32.48,-72.61l0 -364.92c0,-31.12 -9.93,-52.1 -30.08,-62.71 -12.03,-5.89 -39.71,-8.96 -83.63,-8.96l0 507.79 43.01 0c4.52,0 8.13,0.94 10.84,2.59 2.7,1.65 3.9,3.77 3.9,5.89 0,2.13 -1.2,4.25 -3.9,5.9 -2.71,1.65 -6.32,2.59 -11.13,2.59l-277.65 0c-3.61,0 -6.32,-0.71 -8.73,-2.36 -2.4,-1.41 -3.61,-3.53 -3.61,-6.13 0,-2.59 1.21,-4.71 3.61,-6.13 2.41,-1.65 5.42,-2.35 9.33,-2.35l53.85 0 0 -1005.67zm180.48 1.41l0 478.09 43.61 0c20.76,0 37.61,-5.43 50.55,-16.51 12.94,-11.08 19.55,-27.34 19.55,-48.32l0 -358.56c0,-20.75 -4.81,-35.13 -14.14,-42.91 -9.62,-7.78 -28.28,-11.79 -55.96,-11.79l-43.61 0z"/>
   <path id="_7" class="fil1" d="M1928.01 1682.33l0 254.6c0,146.86 -29.49,253.89 -88.75,321.54 -41.2,46.92 -92.34,70.49 -154.01,70.49 -41.81,0 -80.01,-11.79 -115.21,-35.12 -35.2,-23.58 -62.87,-58 -82.72,-103.49 -32.2,-73.32 -48.44,-154.41 -48.44,-243.76l0 -298.21c0,-138.85 29.49,-241.87 88.75,-309.06 41.2,-46.44 91.75,-69.77 152.21,-69.77 29.47,0 56.24,5.18 80.92,15.55 24.67,10.38 46.62,25.46 66.18,45.5 19.25,20.04 36.7,46.44 52.34,79.45 15.34,32.76 26.47,66.95 32.78,102.31 10.53,60.35 15.95,116.92 15.95,169.97zm-303.22 533c0,35.84 6.91,62 20.76,78.03 10.53,11.56 23.16,17.21 38.2,17.21 14.43,0 27.37,-5.18 38.19,-15.56 11.14,-10.37 16.55,-25.22 16.55,-44.55l0 -884.5c0,-24.75 -7.22,-44.55 -21.65,-59.4 -9.93,-10.61 -22.27,-15.8 -37.3,-15.8 -13.24,0 -24.97,4.95 -34.9,15.09 -13.23,13.91 -19.85,33.95 -19.85,60.11l0 849.37z"/>
   <path id="_8" class="fil1" d="M2041.72 1296.42l-52.34 0c-3.01,0 -5.72,-0.71 -7.83,-2.36 -2.1,-1.65 -3.01,-3.53 -3.01,-5.89 0,-2.59 0.91,-4.72 3.01,-6.37 2.11,-1.65 4.51,-2.35 7.52,-2.35l238.54 0 85.74 638.38 107.69 -638.38 241.26 0c3.3,0 6.31,0.7 8.71,2.35 2.41,1.65 3.32,3.54 3.32,5.9 0,2.59 -0.91,4.71 -3.32,6.36 -2.4,1.65 -5.41,2.36 -8.71,2.36l-57.46 0 0 1005.67 57.15 0c1.51,0 2.7,0.47 3.32,1.41 1.8,2.12 2.7,4.72 2.7,7.78 0,2.59 -0.6,4.48 -1.81,5.89 -1.2,1.18 -2.7,1.89 -4.21,1.89l-289.38 0c-2.41,0 -4.52,-0.71 -6.62,-2.36 -2.11,-1.41 -3,-3.53 -3,-6.13 0,-2.59 0.89,-4.71 3,-6.13 2.1,-1.65 4.21,-2.35 6.62,-2.35l60.76 0 0 -959.7 -155.52 952.62c-2.4,12.26 -4.5,19.34 -6.32,21.22 -1.79,1.89 -4.5,2.83 -7.82,2.83l-58.35 0c-3.61,0 -6.32,-0.94 -8.13,-2.83 -1.8,-1.88 -3.6,-8.96 -5.41,-21.45l-126.65 -942.73 0 875.78c0,24.04 3.01,40.78 9.33,50.45 6.02,9.66 16.55,16.73 31.89,20.98l39.11 2.83c3,1.41 4.5,4 4.5,8.25 0,3.53 -0.6,5.89 -2.1,7.07 -1.51,1.18 -5.11,1.65 -10.82,1.65l-154.33 0c-2.39,0 -4.21,-0.71 -5.71,-1.89 -1.51,-1.17 -2.11,-2.82 -2.11,-4.95 0,-2.12 0.6,-3.77 2.11,-4.71 1.5,-1.18 6.62,-2.83 15.35,-5.42 17.74,-5.66 30.07,-12.73 36.39,-21.46 8.73,-12.02 12.94,-28.99 12.94,-51.39l0 -932.82z"/>
   <path id="_9" class="fil1" d="M2776.6 1296.42l-53.23 0c-3.01,0 -5.43,-0.71 -7.23,-2.36 -1.81,-1.65 -2.7,-3.53 -2.7,-5.89 0,-2.59 0.89,-4.72 2.7,-6.37 1.8,-1.65 4.22,-2.35 6.92,-2.35l286.68 0c3.01,0 5.41,0.7 7.52,2.35 2.11,1.65 3,3.54 3,5.9 0,2.59 -0.89,4.71 -3,6.36 -2.11,1.65 -4.51,2.36 -7.52,2.36l-52.64 0 0 1005.67 52.64 0c5.71,3.06 8.72,5.89 8.72,8.48 0,3.07 -3.01,5.9 -8.72,8.49l-293.9 0c-6.32,-3.06 -9.62,-5.89 -9.62,-8.49 0,-2.59 3.3,-5.42 9.92,-8.48l60.46 0 0 -1005.67z"/>
   <path id="_10" class="fil1" d="M3269.04 1297.83l-18.64 0c-12.94,0 -24.38,3.3 -33.7,9.67 -14.44,9.67 -28.28,31.12 -41.81,64.36 -21.96,53.04 -40.61,116.45 -55.95,190.47 -15.34,74.03 -23.16,120.94 -23.16,140.74l0 15.8c0,3.77 -1.21,6.6 -3.32,8.72 -2.1,2.12 -4.5,3.06 -7.21,3.06 -3.01,0 -5.42,-0.94 -7.22,-2.83 -2.71,-2.82 -3.92,-5.65 -3.92,-8.95l0 -439.42 570.35 0 0 438.71c0,3.3 -1.21,5.89 -3.32,8.01 -2.1,2.13 -4.81,3.07 -7.82,3.07 -2.7,0 -5.1,-0.94 -7.21,-3.07 -2.1,-2.12 -3.31,-4.71 -3.31,-8.01l0 -26.88c0,-26.16 -8.43,-75.2 -25.27,-146.63 -16.84,-71.66 -36.39,-131.77 -58.35,-180.57 -14.14,-31.36 -25.88,-50.22 -34.9,-56.58 -9.33,-6.37 -18.05,-9.67 -26.17,-9.67l-28.58 0 0 1004.26 67.98 0c6.32,3.06 9.63,5.89 9.63,8.48 0,2.6 -3.31,5.43 -9.63,8.49l-325.48 0c-3,0 -5.1,-0.71 -6.92,-2.36 -1.79,-1.41 -2.7,-3.53 -2.7,-6.13 0,-2.59 0.91,-4.71 2.7,-6.13 1.82,-1.65 4.22,-2.35 6.92,-2.35l77.01 0 0 -1004.26z"/>
   <path id="_11" class="fil1" d="M3747.63 1296.42l-57.75 0c-6.01,-3.06 -9.02,-5.89 -9.02,-8.25 0,-3.07 3.01,-6.13 8.71,-8.72l502.06 0 0 384.96c-3.31,4.48 -6.61,6.84 -9.93,6.84 -3.3,0 -5.7,-0.71 -6.92,-2.36 -1.5,-1.65 -2.39,-8.25 -2.99,-19.8 -4.22,-76.15 -19.57,-147.1 -46.03,-212.88 -26.77,-65.53 -52.34,-107.26 -77.01,-124.7 -13.23,-9.2 -34.9,-13.68 -65.58,-13.68l-55.04 0 0 483.74c33.68,-2.83 61.05,-16.5 82.11,-41.49 28.28,-33.71 42.41,-85.34 42.41,-155.11l0 -53.99c0,-2.36 0.91,-4.24 3.02,-5.89 2.1,-1.65 4.51,-2.36 7.22,-2.36 3,0 5.41,0.71 6.91,2.36 1.8,1.65 2.71,3.53 2.71,5.89l0 515.33c0,2.12 -0.91,4.24 -2.71,5.89 -1.5,1.65 -3.91,2.36 -6.91,2.36 -2.71,0 -5.12,-0.71 -7.22,-2.36 -2.11,-1.65 -3.02,-3.53 -3.02,-5.89l0 -49.74c0,-68.13 -15.93,-122.12 -47.82,-162.19 -18.66,-22.87 -38.5,-34.42 -58.97,-34.42 -5.41,0 -9.62,1.41 -12.32,4.24 -3.61,3.07 -5.41,8.25 -5.41,15.09l0 481.38 28.27 0c23.76,0 47.52,-7.07 70.99,-20.98 23.47,-14.14 45.43,-38.42 66.17,-73.08 20.46,-34.89 36.1,-72.61 47.23,-113.62 18.35,-66.01 27.38,-117.87 27.38,-155.12l0 -45.5c4.22,-4.95 8.12,-7.54 11.73,-7.54 3.61,0 6.62,0.7 8.73,2.12 2.1,1.41 3,3.06 3,5.42l0 426.69 -501.15 0c-4.21,0 -7.23,-0.94 -9.62,-2.59 -2.42,-1.65 -3.62,-3.77 -3.62,-5.9 0,-2.59 1.2,-4.71 3.62,-6.13 2.39,-1.65 5.71,-2.35 9.62,-2.35l57.15 0 0 -1005.67z"/>
   <path class="fil1" d="M239.57 4159.74l0 -1486.08 -85.25 0c-6.07,0 -10.77,-1.05 -14.05,-3.49 -3.27,-2.44 -4.68,-5.57 -4.68,-9.4 0,-3.49 1.41,-6.27 4.68,-8.71 3.28,-2.44 7.98,-3.49 14.52,-3.49l354.11 0c108.2,0 196.73,18.47 265.12,55.04 68.38,36.93 118.49,95.8 150.35,176.97 41.68,107.99 62.76,223.64 62.76,346.26l0 378.67c0,127.49 -20.61,242.45 -61.35,345.56 -23.89,57.83 -53.88,102.77 -90.41,135.17 -36.53,32.39 -80.55,56.78 -132.55,73.5 -52,16.72 -116.63,25.08 -193.92,25.08l-354.11 0c-6.54,0 -11.24,-1.05 -14.52,-3.14 -3.27,-2.43 -4.68,-5.22 -4.68,-9.05 0,-4.18 1.41,-7.32 4.68,-9.76 3.28,-2.09 7.98,-3.13 14.05,-3.13l85.25 0zm281.05 -2.09l31.85 0c56.2,0 93.21,-7.32 110.54,-21.95 17.33,-14.63 26.23,-52.25 26.23,-112.87l0 -1235.61c0,-44.24 -8.43,-74.55 -25.76,-90.22 -16.86,-15.68 -43.1,-23.34 -77.76,-23.34l-65.1 0 0 1483.99z"/>
   <path id="_1_1" class="fil1" d="M1145.58 2673.66l-80.57 0c-9.84,-4.18 -14.99,-8.36 -14.99,-12.89 0,-4.18 5.15,-8.36 14.99,-12.2l431.86 0c106.8,0 199.53,33.79 278.22,101.72 78.7,67.93 118.04,160.6 118.04,277.64 0,67.58 -14.99,127.5 -45.44,180.1 -29.98,52.6 -74.94,95.8 -134.43,129.94 -35.59,20.55 -91.33,40.06 -166.27,59.22 83.37,18.46 141.45,36.23 174.23,53.3 55.28,28.21 96.49,62.7 123.19,102.76 26.71,40.06 40.29,92.32 40.29,156.07l0 373.08c0,17.07 3.75,28.92 11.24,35.88 7.03,6.62 16.86,10.11 28.57,10.11 18.27,0 35.13,-8.36 49.66,-25.43 23.88,-27.18 38.87,-76.29 45.43,-146.66 0.93,-12.19 3.74,-20.55 7.96,-24.39 4.21,-4.18 8.43,-6.27 13.11,-6.27 5.62,0 10.31,2.44 14.05,6.97 4.69,5.57 7.03,15.68 7.03,30.66 0,75.24 -24.36,133.42 -73.53,174.52 -48.72,41.11 -110.08,61.66 -184.09,61.66 -66.05,0 -115.69,-12.54 -149.88,-37.62 -33.72,-25.08 -50.58,-60.96 -50.58,-107.29l0 -539.26c0,-45.98 -15.47,-76.98 -46.85,-92.66 -18.73,-8.71 -61.82,-13.24 -130.21,-13.24l0 750.36 66.97 0c7.04,0 12.66,1.39 16.87,3.83 4.22,2.44 6.09,5.57 6.09,8.71 0,3.13 -1.87,6.27 -6.09,8.71 -4.21,2.44 -9.83,3.83 -17.34,3.83l-432.32 0c-5.62,0 -9.83,-1.05 -13.58,-3.48 -3.75,-2.09 -5.62,-5.23 -5.62,-9.06 0,-3.83 1.87,-6.97 5.62,-9.06 3.75,-2.44 8.43,-3.48 14.52,-3.48l83.85 0 0 -1486.08zm281.03 2.09l0 706.46 67.92 0c32.32,0 58.54,-8.01 78.68,-24.38 20.14,-16.38 30.46,-40.41 30.46,-71.42l0 -529.85c0,-30.65 -7.51,-51.9 -22.03,-63.4 -14.98,-11.49 -44.02,-17.41 -87.11,-17.41l-67.92 0z"/>
   <path id="_2_2" class="fil1" d="M2188.82 2673.66l-82.91 0c-4.69,0 -8.43,-1.05 -11.24,-3.49 -2.81,-2.44 -4.22,-5.22 -4.22,-8.71 0,-3.83 1.41,-6.96 4.22,-9.4 2.81,-2.44 6.55,-3.49 10.77,-3.49l446.37 0c4.68,0 8.43,1.05 11.72,3.49 3.28,2.44 4.67,5.22 4.67,8.71 0,3.83 -1.39,6.96 -4.67,9.4 -3.29,2.44 -7.04,3.49 -11.72,3.49l-81.96 0 0 1486.08 81.96 0c8.9,4.53 13.58,8.71 13.58,12.54 0,4.53 -4.68,8.71 -13.58,12.54l-457.61 0c-9.84,-4.53 -14.99,-8.71 -14.99,-12.54 0,-3.83 5.15,-8.01 15.46,-12.54l94.15 0 0 -1486.08z"/>
   <path id="_3_3" class="fil1" d="M2696.68 2673.66l-69.8 0c-4.68,0 -8.43,-1.05 -11.71,-3.49 -3.27,-2.09 -4.68,-5.22 -4.68,-9.05 0,-3.84 1.41,-6.97 4.68,-9.06 3.28,-2.44 7.03,-3.49 11.71,-3.49l436.55 0c4.68,0 8.43,1.05 11.71,3.49 3.28,2.09 4.68,5.22 4.68,9.06 0,3.83 -1.4,6.96 -4.21,9.05 -2.81,2.44 -7.03,3.49 -12.65,3.49l-84.31 0 119.44 1132.85 161.59 -1026.95c1.87,-9.76 2.81,-19.51 2.81,-29.27 0,-22.64 -4.2,-40.06 -12.65,-51.9 -7.96,-11.5 -20.13,-18.81 -36.06,-21.6l-44.02 -3.13c-5.62,-2.79 -8.43,-6.62 -8.43,-12.2 0,-3.83 5.15,-8.36 14.98,-12.89l207.49 0c4.7,0 7.98,1.05 10.79,3.14 2.81,2.44 4.21,5.22 4.21,8.71 0,3.83 -0.93,6.62 -3.29,8.71 -2.34,2.44 -6.09,3.83 -11.71,4.53 -22.01,2.09 -38.87,9.05 -51.05,21.25 -19.2,21.25 -32.31,56.08 -39.34,104.85l-206.09 1291c-8.43,53.3 -14.05,82.22 -17.8,86.74 -3.75,4.88 -10.31,7.32 -20.14,7.32l-130.21 0c-7.5,0 -12.65,-2.79 -16.41,-8.01 -3.73,-5.58 -10.3,-44.94 -20.59,-117.75l-185.49 -1385.4z"/>
   <path id="_4_4" class="fil1" d="M3508.07 2673.66l-89.94 0c-9.37,-4.53 -14.05,-8.71 -14.05,-12.2 0,-4.53 4.68,-9.05 13.58,-12.89l781.76 0 0 568.87c-5.15,6.62 -10.32,10.1 -15.47,10.1 -5.15,0 -8.9,-1.04 -10.77,-3.48 -2.34,-2.44 -3.75,-12.2 -4.68,-29.26 -6.56,-112.52 -30.45,-217.38 -71.66,-314.57 -41.7,-96.84 -81.51,-158.5 -119.91,-184.28 -20.62,-13.59 -54.34,-20.2 -102.11,-20.2l-85.72 0 0 714.82c52.45,-4.18 95.08,-24.38 127.87,-61.31 44.02,-49.81 66.05,-126.1 66.05,-229.22l0 -79.77c0,-3.48 1.4,-6.27 4.68,-8.71 3.28,-2.44 7.03,-3.48 11.24,-3.48 4.68,0 8.43,1.04 10.77,3.48 2.81,2.44 4.22,5.23 4.22,8.71l0 761.5c0,3.14 -1.41,6.27 -4.22,8.71 -2.34,2.44 -6.09,3.49 -10.77,3.49 -4.21,0 -7.96,-1.05 -11.24,-3.49 -3.28,-2.44 -4.68,-5.22 -4.68,-8.71l0 -73.5c0,-100.67 -24.84,-180.45 -74.48,-239.67 -29.04,-33.79 -59.95,-50.86 -91.81,-50.86 -8.43,0 -14.99,2.09 -19.2,6.27 -5.62,4.53 -8.43,12.2 -8.43,22.3l0 711.34 44.02 0c37.01,0 74.01,-10.45 110.56,-31.01 36.53,-20.9 70.72,-56.78 103.03,-107.99 31.85,-51.55 56.22,-107.29 73.55,-167.9 28.56,-97.54 42.62,-174.18 42.62,-229.22l0 -67.23c6.55,-7.32 12.64,-11.15 18.26,-11.15 5.62,0 10.32,1.05 13.58,3.14 3.28,2.09 4.7,4.52 4.7,8.01l0 630.52 -780.35 0c-6.56,0 -11.24,-1.39 -14.99,-3.83 -3.75,-2.44 -5.62,-5.58 -5.62,-8.71 0,-3.83 1.87,-6.97 5.62,-9.06 3.75,-2.44 8.9,-3.48 14.99,-3.48l89 0 0 -1486.08z"/>
   <rect class="fil2" x="135.53" y="2473.56" width="4063.88" height="30.43"/>
  </g>
 </g>
</svg>
