<?xml version="1.0" encoding="UTF-8"?>
<!DOCTYPE svg PUBLIC "-//W3C//DTD SVG 1.1//EN" "http://www.w3.org/Graphics/SVG/1.1/DTD/svg11.dtd">
<!-- Creator: CorelDRAW -->
<svg xmlns="http://www.w3.org/2000/svg" xml:space="preserve" width="25.3998mm" height="6.8578mm" version="1.1" style="shape-rendering:geometricPrecision; text-rendering:geometricPrecision; image-rendering:optimizeQuality; fill-rule:evenodd; clip-rule:evenodd"
viewBox="0 0 2539.98 685.78"
 xmlns:xlink="http://www.w3.org/1999/xlink"
 xmlns:xodm="http://www.corel.com/coreldraw/odm/2003">
 <defs>
  <style type="text/css">
   <![CDATA[
    .fil0 {fill:none}
    .fil1 {fill:white;fill-rule:nonzero}
   ]]>
  </style>
 </defs>
 <g id="Layer_x0020_1">
  <metadata id="CorelCorpID_0Corel-Layer"/>
  <rect class="fil0" x="-0.01" y="-0.01" width="2540" height="685.8"/>
  <path class="fil1" d="M61.63 325.69l0 -275.61 -14.25 0c-1.62,-0.84 -2.43,-1.68 -2.43,-2.39 0,-0.64 0.81,-1.42 2.35,-2.26l65.55 0c1.53,0.84 2.33,1.62 2.33,2.26 0,0.71 -0.8,1.55 -2.48,2.39l-7.17 0 0 129.47 28.09 0 0 -129.47 -9.07 0c-1.53,-0.84 -2.34,-1.68 -2.34,-2.39 0,-0.77 0.81,-1.55 2.34,-2.26l65.99 0c1.53,0.84 2.33,1.62 2.33,2.26 0,0.71 -0.8,1.55 -2.41,2.39l-12.94 0 0 275.61 13.02 0c0.66,0 1.31,0.19 1.9,0.64 0.58,0.39 0.87,0.97 0.87,1.68 0,0.71 -0.29,1.3 -0.87,1.68 -0.59,0.46 -1.18,0.65 -1.9,0.65l-64.01 0c-0.74,0 -1.32,-0.19 -1.84,-0.65 -0.51,-0.38 -0.72,-0.97 -0.72,-1.68 0,-0.71 0.29,-1.29 0.8,-1.68 0.51,-0.45 1.1,-0.64 1.83,-0.64l7.02 0 0 -141.49 -28.09 0 0 141.49 8.42 0c0.72,0 1.31,0.19 1.82,0.64 0.51,0.39 0.74,0.97 0.74,1.68 0,0.71 -0.23,1.3 -0.74,1.68 -0.51,0.46 -1.1,0.65 -1.82,0.65l-66.65 0c-1.54,-0.84 -2.35,-1.62 -2.35,-2.33 0,-0.71 0.81,-1.48 2.43,-2.32l14.25 0z"/>
  <path id="_1" class="fil1" d="M319.21 49.7l22.75 0 37.9 275.99 9.66 0c1.52,0.84 2.33,1.61 2.33,2.32 0,0.71 -0.81,1.49 -2.33,2.33l-64.16 0c-0.74,0 -1.25,-0.19 -1.69,-0.65 -0.44,-0.38 -0.66,-0.97 -0.66,-1.68 0,-0.71 0.22,-1.29 0.66,-1.68 0.44,-0.45 1.03,-0.64 1.69,-0.64l10.38 0 -5.92 -53.88 -39.14 0 -4.54 30.3c-0.06,1.61 -0.14,3.29 -0.14,5.04 0,5.49 1.16,9.62 3.65,12.47 2.42,2.77 5.78,4.52 10.02,5.1l3.59 0.97c0.58,0.52 0.88,1.23 0.88,2 0,0.84 -0.22,1.49 -0.73,1.94 -0.52,0.45 -1.18,0.71 -1.83,0.71l-36.87 0c-0.66,0 -1.32,-0.26 -1.83,-0.71 -0.44,-0.45 -0.73,-1.1 -0.73,-1.94 0,-0.77 0.21,-1.48 0.66,-2l2.55 -0.78c4.17,-0.45 7.4,-2.06 9.66,-4.84 3.45,-4.4 5.86,-11.63 7.32,-21.71l36.87 -248.66zm-6.07 70.54l-21.73 146.53 37.82 0 -16.09 -146.53z"/>
  <path id="_2" class="fil1" d="M477 50.08l-12.59 0c-1.53,-0.77 -2.33,-1.55 -2.33,-2.39 0,-0.77 0.8,-1.55 2.33,-2.26l67.45 0c16.68,0 31.17,6.27 43.45,18.87 12.3,12.59 18.44,29.78 18.44,51.49 0,12.53 -2.34,23.64 -7.09,33.4 -4.69,9.75 -11.71,17.76 -21,24.1 -5.56,3.81 -14.26,7.42 -25.97,10.98 13.02,3.42 22.09,6.72 27.21,9.88 8.64,5.24 15.07,11.63 19.25,19.06 4.16,7.43 6.28,17.12 6.28,28.94l0 69.2c0,3.16 0.59,5.36 1.76,6.65 1.1,1.23 2.64,1.87 4.46,1.87 2.85,0 5.49,-1.55 7.76,-4.71 3.73,-5.04 6.06,-14.15 7.1,-27.2 0.14,-2.26 0.57,-3.81 1.24,-4.52 0.66,-0.78 1.31,-1.17 2.05,-1.17 0.87,0 1.61,0.46 2.19,1.3 0.73,1.03 1.09,2.9 1.09,5.68 0,13.96 -3.8,24.74 -11.48,32.37 -7.61,7.62 -17.19,11.43 -28.75,11.43 -10.31,0 -18.07,-2.32 -23.4,-6.97 -5.28,-4.66 -7.91,-11.31 -7.91,-19.9l0 -100.01c0,-8.53 -2.41,-14.28 -7.31,-17.19 -2.94,-1.61 -9.66,-2.45 -20.34,-2.45l0 139.16 10.46 0c1.1,0 1.97,0.26 2.63,0.71 0.66,0.45 0.95,1.03 0.95,1.61 0,0.59 -0.29,1.17 -0.95,1.62 -0.66,0.45 -1.53,0.71 -2.71,0.71l-67.52 0c-0.87,0 -1.54,-0.19 -2.12,-0.65 -0.58,-0.38 -0.88,-0.97 -0.88,-1.68 0,-0.71 0.3,-1.29 0.88,-1.68 0.58,-0.45 1.32,-0.64 2.27,-0.64l13.1 0 0 -275.61zm43.89 0.39l0 131.02 10.61 0c5.04,0 9.14,-1.49 12.29,-4.52 3.14,-3.04 4.75,-7.5 4.75,-13.25l0 -98.26c0,-5.69 -1.16,-9.63 -3.44,-11.76 -2.33,-2.13 -6.87,-3.23 -13.6,-3.23l-10.61 0z"/>
  <path id="_3" class="fil1" d="M721.26 313.93c-4.9,3.04 -9.89,6.78 -15,11.24 -5.05,4.46 -8.19,6.72 -9.29,6.72 -0.44,0 -0.8,-0.19 -1.1,-0.58 -0.29,-0.39 -0.44,-1.16 -0.44,-2.46l0 -118.93c0,-0.46 0.22,-0.91 0.59,-1.23 0.36,-0.32 0.72,-0.45 1.17,-0.45 0.73,0 1.39,0.38 1.97,1.16 1.03,1.1 1.54,2.39 1.54,3.75l0 8.14c0,15.82 2.78,33.79 8.41,54.01 5.56,20.22 12.95,34.56 21.94,43.15 4.47,4.33 9.66,6.46 15.52,6.46 6.8,0 12.66,-2.77 17.7,-8.4 5.05,-5.62 7.54,-14.14 7.54,-25.51 0,-10.86 -2.28,-22.36 -6.89,-34.44 -5.99,-16.21 -19.38,-42.12 -40,-77.78 -12.96,-22.23 -21.16,-38.31 -24.67,-48.2 -3.51,-9.95 -5.26,-19.57 -5.26,-28.94 0,-18.54 4.98,-33.08 14.92,-43.55 9.96,-10.53 21.29,-15.76 34.02,-15.76 10.82,0 20.63,5.1 29.34,15.38 7.17,-3.43 14.12,-7.69 20.84,-12.73 2.27,-1.74 3.81,-2.65 4.47,-2.65 0.29,0 0.59,0.13 0.88,0.39 0.29,0.52 0.44,1.36 0.44,2.65l0 102.85c0,1.42 -0.37,2.58 -1.1,3.42 -0.37,0.52 -0.95,0.78 -1.68,0.78 -0.88,0 -1.54,-0.33 -1.91,-0.97 -0.44,-0.58 -1.31,-5.17 -2.56,-13.63 -5.85,-39.35 -13.67,-65.45 -23.33,-78.17 -5.78,-7.18 -12.22,-10.73 -19.54,-10.73 -5.41,0 -10.09,2.13 -14.12,6.46 -4.02,4.27 -6,10.6 -6,18.87 0,15.05 9.74,39.73 29.13,74.03l18.87 33.6c13.02,23.06 21.65,41.41 25.9,54.91 4.31,13.57 6.43,25.71 6.43,36.44 0,18.67 -5.2,33.34 -15.65,43.93 -10.46,10.6 -22.76,15.89 -36.8,15.89 -15.22,0 -27.29,-6.39 -36.28,-19.12z"/>
  <path id="_4" class="fil1" d="M898.94 325.69l0 -275.61 -14.26 0c-1.62,-0.84 -2.42,-1.68 -2.42,-2.39 0,-0.64 0.8,-1.42 2.34,-2.26l65.55 0c1.53,0.84 2.34,1.62 2.34,2.26 0,0.71 -0.81,1.55 -2.48,2.39l-7.17 0 0 129.47 28.08 0 0 -129.47 -9.07 0c-1.53,-0.84 -2.33,-1.68 -2.33,-2.39 0,-0.77 0.8,-1.55 2.33,-2.26l65.99 0c1.53,0.84 2.34,1.62 2.34,2.26 0,0.71 -0.81,1.55 -2.42,2.39l-12.94 0 0 275.61 13.02 0c0.66,0 1.32,0.19 1.91,0.64 0.57,0.39 0.87,0.97 0.87,1.68 0,0.71 -0.3,1.3 -0.87,1.68 -0.59,0.46 -1.18,0.65 -1.91,0.65l-64.01 0c-0.73,0 -1.31,-0.19 -1.83,-0.65 -0.51,-0.38 -0.73,-0.97 -0.73,-1.68 0,-0.71 0.3,-1.29 0.81,-1.68 0.51,-0.45 1.09,-0.64 1.82,-0.64l7.02 0 0 -141.49 -28.08 0 0 141.49 8.41 0c0.73,0 1.31,0.19 1.82,0.64 0.51,0.39 0.74,0.97 0.74,1.68 0,0.71 -0.23,1.3 -0.74,1.68 -0.51,0.46 -1.09,0.65 -1.82,0.65l-66.65 0c-1.54,-0.84 -2.34,-1.62 -2.34,-2.33 0,-0.71 0.8,-1.48 2.42,-2.32l14.26 0z"/>
  <path id="_5" class="fil1" d="M58.56 636.1l0 -275.61 -13.9 0c-1.53,-0.84 -2.33,-1.68 -2.33,-2.39 0,-0.64 0.8,-1.42 2.33,-2.26l62.99 0c19.32,0 35.12,5.95 47.48,17.77 12.29,11.89 18.44,28.55 18.44,50 0,13.12 -2.12,24.42 -6.3,33.98 -4.17,9.5 -10.6,17.51 -19.45,23.91 -5.5,4.07 -13.83,7.88 -25.03,11.56 11.64,3.81 20.19,7.63 25.68,11.57 8.86,6.46 15.52,14.27 20.04,23.38 4.55,9.18 6.81,20.48 6.81,33.86 0,17.31 -3.36,32.69 -10.02,46.06 -4.54,9.37 -12.07,17.19 -22.47,23.45 -10.38,6.27 -22.81,9.37 -37.3,9.37l-60.87 0c-1.53,-0.84 -2.33,-1.62 -2.33,-2.33 0,-0.71 0.8,-1.48 2.33,-2.32l13.9 0zm43.89 -275.22l0 129.86 11.42 0c5.2,0 9.07,-1.17 11.56,-3.43 2.56,-2.26 3.8,-6.01 3.8,-11.3l0 -98.53c0,-6.39 -1.31,-10.78 -3.88,-13.11 -2.63,-2.33 -7.6,-3.49 -15.14,-3.49l-7.76 0zm0 134.9l0 139.93 6.89 0c6.07,0 10.89,-1.49 14.48,-4.52 3.58,-3.04 5.41,-7.17 5.41,-12.34l0 -110.02c0,-4.65 -1.03,-8.01 -3.14,-10.02 -2.05,-2 -5.35,-3.03 -9.81,-3.03l-13.83 0z"/>
  <path id="_6" class="fil1" d="M202.17 360.49l-12.59 0c-1.53,-0.77 -2.34,-1.55 -2.34,-2.39 0,-0.77 0.81,-1.55 2.34,-2.26l67.45 0c16.68,0 31.16,6.27 43.45,18.87 12.3,12.59 18.43,29.78 18.43,51.49 0,12.53 -2.33,23.64 -7.09,33.4 -4.68,9.75 -11.7,17.76 -20.99,24.1 -5.56,3.81 -14.27,7.42 -25.97,10.98 13.02,3.42 22.09,6.72 27.21,9.88 8.64,5.24 15.07,11.63 19.25,19.06 4.16,7.43 6.28,17.12 6.28,28.94l0 69.2c0,3.16 0.59,5.36 1.76,6.65 1.09,1.23 2.63,1.87 4.46,1.87 2.85,0 5.49,-1.55 7.75,-4.71 3.74,-5.04 6.07,-14.15 7.1,-27.2 0.15,-2.26 0.58,-3.81 1.25,-4.52 0.66,-0.78 1.31,-1.17 2.05,-1.17 0.87,0 1.61,0.46 2.18,1.3 0.74,1.03 1.1,2.9 1.1,5.68 0,13.96 -3.8,24.74 -11.48,32.37 -7.61,7.62 -17.19,11.43 -28.75,11.43 -10.32,0 -18.07,-2.32 -23.41,-6.97 -5.27,-4.66 -7.9,-11.31 -7.9,-19.9l0 -100.01c0,-8.53 -2.41,-14.28 -7.31,-17.19 -2.94,-1.61 -9.66,-2.45 -20.34,-2.45l0 139.16 10.46 0c1.1,0 1.97,0.26 2.63,0.71 0.65,0.45 0.95,1.03 0.95,1.61 0,0.59 -0.3,1.17 -0.95,1.62 -0.66,0.45 -1.53,0.71 -2.71,0.71l-67.52 0c-0.87,0 -1.54,-0.19 -2.12,-0.65 -0.59,-0.38 -0.88,-0.97 -0.88,-1.68 0,-0.71 0.29,-1.29 0.88,-1.68 0.58,-0.45 1.32,-0.64 2.27,-0.64l13.1 0 0 -275.61zm43.89 0.39l0 131.02 10.61 0c5.04,0 9.14,-1.49 12.28,-4.52 3.15,-3.04 4.76,-7.5 4.76,-13.25l0 -98.26c0,-5.69 -1.17,-9.63 -3.44,-11.76 -2.33,-2.13 -6.88,-3.23 -13.6,-3.23l-10.61 0z"/>
  <path id="_7" class="fil1" d="M478.26 466.25l0 69.78c0,40.24 -7.17,69.57 -21.58,88.12 -10.03,12.85 -22.46,19.31 -37.46,19.31 -10.17,0 -19.46,-3.23 -28.02,-9.62 -8.56,-6.46 -15.28,-15.9 -20.12,-28.36 -7.82,-20.1 -11.78,-42.32 -11.78,-66.81l0 -81.72c0,-38.05 7.17,-66.29 21.59,-84.7 10.02,-12.73 22.3,-19.12 37.01,-19.12 7.17,0 13.68,1.42 19.68,4.26 6.01,2.85 11.34,6.98 16.09,12.47 4.69,5.49 8.93,12.73 12.73,21.77 3.74,8.98 6.44,18.35 7.97,28.04 2.57,16.54 3.89,32.05 3.89,46.58zm-73.74 146.07c0,9.82 1.67,16.99 5.04,21.39 2.57,3.16 5.64,4.71 9.29,4.71 3.51,0 6.66,-1.42 9.29,-4.26 2.71,-2.84 4.03,-6.91 4.03,-12.21l0 -242.4c0,-6.78 -1.75,-12.21 -5.26,-16.28 -2.43,-2.91 -5.43,-4.33 -9.09,-4.33 -3.21,0 -6.07,1.36 -8.48,4.14 -3.21,3.81 -4.82,9.3 -4.82,16.47l0 232.77z"/>
  <path id="_8" class="fil1" d="M505.91 360.49l-12.73 0c-0.73,0 -1.39,-0.19 -1.9,-0.64 -0.51,-0.45 -0.74,-0.97 -0.74,-1.62 0,-0.71 0.23,-1.29 0.74,-1.74 0.51,-0.45 1.1,-0.65 1.82,-0.65l58.02 0 20.85 174.95 26.19 -174.95 58.67 0c0.8,0 1.54,0.2 2.12,0.65 0.59,0.45 0.8,0.97 0.8,1.61 0,0.71 -0.21,1.3 -0.8,1.75 -0.58,0.45 -1.32,0.64 -2.12,0.64l-13.97 0 0 275.61 13.9 0c0.36,0 0.66,0.13 0.8,0.39 0.44,0.58 0.66,1.29 0.66,2.13 0,0.71 -0.15,1.23 -0.44,1.61 -0.29,0.33 -0.66,0.52 -1.02,0.52l-70.37 0c-0.59,0 -1.1,-0.19 -1.62,-0.65 -0.51,-0.38 -0.73,-0.97 -0.73,-1.68 0,-0.71 0.22,-1.29 0.73,-1.68 0.52,-0.45 1.03,-0.64 1.62,-0.64l14.77 0 0 -263.01 -37.82 261.07c-0.59,3.36 -1.1,5.3 -1.54,5.81 -0.44,0.52 -1.1,0.78 -1.9,0.78l-14.19 0c-0.88,0 -1.54,-0.26 -1.98,-0.78 -0.44,-0.51 -0.87,-2.45 -1.31,-5.87l-30.8 -258.36 0 240.01c0,6.59 0.73,11.17 2.26,13.82 1.46,2.65 4.03,4.59 7.76,5.75l9.51 0.78c0.74,0.39 1.1,1.1 1.1,2.26 0,0.97 -0.15,1.61 -0.51,1.94 -0.38,0.32 -1.25,0.45 -2.64,0.45l-37.53 0c-0.58,0 -1.03,-0.19 -1.39,-0.52 -0.36,-0.32 -0.51,-0.77 -0.51,-1.35 0,-0.58 0.15,-1.04 0.51,-1.3 0.36,-0.32 1.61,-0.77 3.74,-1.48 4.31,-1.55 7.31,-3.49 8.84,-5.88 2.13,-3.3 3.15,-7.95 3.15,-14.08l0 -255.65z"/>
  <path id="_9" class="fil1" d="M684.63 360.49l-12.96 0c-0.72,0 -1.31,-0.19 -1.75,-0.64 -0.44,-0.45 -0.66,-0.97 -0.66,-1.62 0,-0.71 0.22,-1.29 0.66,-1.74 0.44,-0.45 1.03,-0.65 1.69,-0.65l69.71 0c0.73,0 1.32,0.2 1.83,0.65 0.51,0.45 0.73,0.97 0.73,1.61 0,0.71 -0.22,1.3 -0.73,1.75 -0.51,0.45 -1.1,0.64 -1.83,0.64l-12.8 0 0 275.61 12.8 0c1.39,0.84 2.12,1.61 2.12,2.32 0,0.84 -0.73,1.62 -2.12,2.33l-71.47 0c-1.54,-0.84 -2.34,-1.62 -2.34,-2.33 0,-0.71 0.8,-1.48 2.41,-2.32l14.71 0 0 -275.61z"/>
  <path id="_10" class="fil1" d="M804.39 360.88l-4.55 0c-3.14,0 -5.92,0.91 -8.19,2.65 -3.51,2.65 -6.88,8.53 -10.17,17.64 -5.34,14.53 -9.88,31.91 -13.6,52.2 -3.74,20.28 -5.64,33.14 -5.64,38.57l0 4.33c0,1.03 -0.3,1.8 -0.8,2.39 -0.51,0.58 -1.1,0.84 -1.76,0.84 -0.72,0 -1.31,-0.26 -1.75,-0.78 -0.66,-0.77 -0.96,-1.55 -0.96,-2.45l0 -120.43 138.71 0 0 120.23c0,0.91 -0.3,1.62 -0.81,2.2 -0.51,0.58 -1.17,0.84 -1.9,0.84 -0.66,0 -1.25,-0.26 -1.76,-0.84 -0.51,-0.58 -0.8,-1.29 -0.8,-2.2l0 -7.36c0,-7.17 -2.05,-20.61 -6.15,-40.19 -4.09,-19.64 -8.84,-36.11 -14.19,-49.48 -3.44,-8.6 -6.29,-13.77 -8.48,-15.51 -2.27,-1.74 -4.39,-2.65 -6.36,-2.65l-6.95 0 0 275.22 16.53 0c1.54,0.84 2.34,1.61 2.34,2.32 0,0.71 -0.8,1.49 -2.34,2.33l-79.15 0c-0.74,0 -1.25,-0.19 -1.69,-0.65 -0.44,-0.38 -0.66,-0.97 -0.66,-1.68 0,-0.71 0.22,-1.29 0.66,-1.68 0.44,-0.45 1.03,-0.64 1.69,-0.64l18.73 0 0 -275.22z"/>
  <path id="_11" class="fil1" d="M920.77 360.49l-14.04 0c-1.46,-0.84 -2.2,-1.61 -2.2,-2.26 0,-0.84 0.74,-1.68 2.12,-2.39l122.1 0 0 105.5c-0.81,1.23 -1.61,1.88 -2.41,1.88 -0.81,0 -1.4,-0.2 -1.69,-0.65 -0.36,-0.45 -0.58,-2.26 -0.72,-5.43 -1.04,-20.86 -4.76,-40.31 -11.2,-58.34 -6.51,-17.96 -12.73,-29.39 -18.73,-34.17 -3.22,-2.52 -8.48,-3.75 -15.95,-3.75l-13.38 0 0 132.57c8.19,-0.77 14.84,-4.52 19.96,-11.37 6.89,-9.24 10.32,-23.39 10.32,-42.51l0 -14.79c0,-0.65 0.22,-1.17 0.73,-1.62 0.51,-0.45 1.1,-0.65 1.76,-0.65 0.72,0 1.31,0.2 1.68,0.65 0.44,0.45 0.66,0.97 0.66,1.62l0 141.22c0,0.58 -0.22,1.16 -0.66,1.62 -0.37,0.45 -0.96,0.64 -1.68,0.64 -0.66,0 -1.25,-0.19 -1.76,-0.64 -0.51,-0.46 -0.73,-0.97 -0.73,-1.62l0 -13.63c0,-18.67 -3.87,-33.47 -11.63,-44.45 -4.54,-6.26 -9.37,-9.43 -14.34,-9.43 -1.32,0 -2.34,0.39 -3,1.16 -0.88,0.84 -1.31,2.26 -1.31,4.14l0 131.92 6.87 0c5.78,0 11.56,-1.94 17.27,-5.75 5.7,-3.88 11.04,-10.53 16.09,-20.03 4.97,-9.56 8.78,-19.89 11.48,-31.14 4.47,-18.09 6.66,-32.3 6.66,-42.51l0 -12.47c1.03,-1.35 1.97,-2.06 2.86,-2.06 0.88,0 1.6,0.19 2.11,0.58 0.52,0.39 0.74,0.84 0.74,1.48l0 116.94 -121.88 0c-1.03,0 -1.75,-0.26 -2.34,-0.71 -0.59,-0.45 -0.87,-1.03 -0.87,-1.62 0,-0.71 0.28,-1.29 0.87,-1.68 0.59,-0.45 1.39,-0.64 2.34,-0.64l13.9 0 0 -275.61z"/>
  <path class="fil1" d="M1135.61 628.08l0 -576.03 -29.33 0c-2.09,0 -3.7,-0.41 -4.83,-1.35 -1.12,-0.95 -1.61,-2.16 -1.61,-3.65 0,-1.35 0.49,-2.43 1.61,-3.37 1.13,-0.95 2.74,-1.35 5,-1.35l121.8 0c37.21,0 67.66,7.15 91.18,21.33 23.53,14.31 40.77,37.13 51.73,68.59 14.34,41.86 21.58,86.69 21.58,134.22l0 146.78c0,49.42 -7.09,93.98 -21.11,133.95 -8.21,22.41 -18.53,39.83 -31.09,52.39 -12.57,12.55 -27.71,22.01 -45.59,28.49 -17.89,6.48 -40.12,9.72 -66.7,9.72l-121.8 0c-2.26,0 -3.87,-0.41 -5,-1.22 -1.12,-0.94 -1.61,-2.02 -1.61,-3.51 0,-1.62 0.49,-2.83 1.61,-3.78 1.13,-0.81 2.74,-1.21 4.83,-1.21l29.33 0zm96.66 -0.81l10.97 0c19.32,0 32.06,-2.84 38.01,-8.51 5.97,-5.67 9.02,-20.25 9.02,-43.75l0 -478.94c0,-17.15 -2.9,-28.9 -8.85,-34.98 -5.8,-6.07 -14.83,-9.04 -26.75,-9.04l-22.4 0 0 575.22z"/>
  <path id="_1_0" class="fil1" d="M1447.24 52.05l-27.71 0c-3.38,-1.62 -5.16,-3.24 -5.16,-5 0,-1.62 1.78,-3.24 5.16,-4.72l148.55 0c36.72,0 68.63,13.09 95.69,39.42 27.07,26.33 40.6,62.25 40.6,107.62 0,26.2 -5.15,49.42 -15.63,69.81 -10.31,20.39 -25.77,37.13 -46.23,50.37 -12.24,7.96 -31.42,15.52 -57.19,22.95 28.67,7.16 48.65,14.04 59.93,20.66 19.01,10.94 33.18,24.31 42.37,39.83 9.19,15.53 13.86,35.79 13.86,60.5l0 144.61c0,6.62 1.28,11.21 3.86,13.91 2.42,2.57 5.8,3.92 9.83,3.92 6.29,0 12.09,-3.25 17.08,-9.86 8.22,-10.53 13.37,-29.57 15.63,-56.85 0.32,-4.72 1.29,-7.97 2.74,-9.45 1.45,-1.62 2.9,-2.43 4.51,-2.43 1.94,0 3.55,0.94 4.83,2.7 1.62,2.16 2.41,6.08 2.41,11.88 0,29.17 -8.37,51.72 -25.29,67.65 -16.75,15.93 -37.86,23.9 -63.31,23.9 -22.72,0 -39.8,-4.86 -51.56,-14.58 -11.6,-9.72 -17.41,-23.63 -17.41,-41.59l0 -209.02c0,-17.83 -5.31,-29.85 -16.1,-35.92 -6.45,-3.38 -21.27,-5.13 -44.8,-5.13l0 290.85 23.04 0c2.43,0 4.36,0.54 5.8,1.48 1.46,0.95 2.1,2.16 2.1,3.38 0,1.21 -0.64,2.43 -2.1,3.37 -1.44,0.95 -3.37,1.49 -5.95,1.49l-148.71 0c-1.93,0 -3.38,-0.41 -4.67,-1.35 -1.29,-0.81 -1.94,-2.03 -1.94,-3.51 0,-1.49 0.65,-2.7 1.94,-3.51 1.29,-0.95 2.9,-1.35 5,-1.35l28.83 0 0 -576.03zm96.66 0.81l0 273.83 23.37 0c11.12,0 20.14,-3.1 27.07,-9.45 6.92,-6.34 10.46,-15.66 10.46,-27.68l0 -205.38c0,-11.88 -2.57,-20.12 -7.56,-24.57 -5.16,-4.46 -15.14,-6.75 -29.97,-6.75l-23.37 0z"/>
  <path id="_2_1" class="fil1" d="M1806.08 52.05l-28.52 0c-1.61,0 -2.9,-0.41 -3.86,-1.35 -0.97,-0.95 -1.46,-2.03 -1.46,-3.38 0,-1.48 0.49,-2.7 1.46,-3.64 0.96,-0.95 2.25,-1.35 3.7,-1.35l153.53 0c1.62,0 2.9,0.4 4.04,1.35 1.12,0.94 1.61,2.02 1.61,3.37 0,1.49 -0.49,2.7 -1.61,3.65 -1.14,0.94 -2.42,1.35 -4.04,1.35l-28.19 0 0 576.03 28.19 0c3.07,1.75 4.68,3.37 4.68,4.86 0,1.75 -1.61,3.37 -4.68,4.86l-157.4 0c-3.38,-1.76 -5.15,-3.38 -5.15,-4.86 0,-1.49 1.77,-3.11 5.32,-4.86l32.38 0 0 -576.03z"/>
  <path id="_3_2" class="fil1" d="M1980.77 52.05l-24 0c-1.61,0 -2.9,-0.41 -4.04,-1.35 -1.12,-0.81 -1.61,-2.03 -1.61,-3.51 0,-1.49 0.49,-2.7 1.61,-3.51 1.14,-0.95 2.43,-1.35 4.04,-1.35l150.15 0c1.61,0 2.9,0.4 4.03,1.35 1.12,0.81 1.61,2.02 1.61,3.51 0,1.48 -0.49,2.7 -1.46,3.51 -0.96,0.94 -2.41,1.35 -4.34,1.35l-29 0 41.08 439.11 55.59 -398.06c0.64,-3.79 0.96,-7.57 0.96,-11.35 0,-8.77 -1.45,-15.52 -4.35,-20.12 -2.73,-4.45 -6.92,-7.29 -12.4,-8.37l-15.15 -1.21c-1.94,-1.08 -2.9,-2.57 -2.9,-4.73 0,-1.48 1.78,-3.24 5.15,-4.99l71.38 0c1.61,0 2.74,0.4 3.71,1.21 0.97,0.95 1.44,2.03 1.44,3.38 0,1.48 -0.32,2.56 -1.12,3.37 -0.81,0.95 -2.1,1.49 -4.03,1.76 -7.57,0.81 -13.38,3.51 -17.57,8.23 -6.59,8.24 -11.1,21.74 -13.53,40.65l-70.88 500.41c-2.9,20.66 -4.83,31.87 -6.12,33.62 -1.29,1.89 -3.55,2.84 -6.94,2.84l-44.79 0c-2.57,0 -4.34,-1.08 -5.63,-3.11 -1.29,-2.16 -3.54,-17.41 -7.09,-45.64l-63.8 -537z"/>
  <path id="_4_3" class="fil1" d="M2259.86 52.05l-30.94 0c-3.22,-1.76 -4.83,-3.38 -4.83,-4.73 0,-1.75 1.61,-3.51 4.67,-4.99l268.9 0 0 220.5c-1.78,2.56 -3.55,3.91 -5.32,3.91 -1.77,0 -3.06,-0.4 -3.7,-1.35 -0.81,-0.94 -1.29,-4.72 -1.61,-11.34 -2.26,-43.61 -10.48,-84.26 -24.65,-121.93 -14.35,-37.54 -28.04,-61.44 -41.25,-71.43 -7.09,-5.27 -18.69,-7.83 -35.13,-7.83l-29.48 0 0 277.08c18.05,-1.62 32.7,-9.46 43.99,-23.77 15.14,-19.31 22.72,-48.88 22.72,-88.85l0 -30.92c0,-1.35 0.48,-2.43 1.61,-3.38 1.12,-0.94 2.41,-1.35 3.86,-1.35 1.62,0 2.9,0.41 3.7,1.35 0.97,0.95 1.46,2.03 1.46,3.38l0 295.17c0,1.22 -0.49,2.43 -1.46,3.38 -0.8,0.94 -2.08,1.35 -3.7,1.35 -1.45,0 -2.74,-0.41 -3.86,-1.35 -1.13,-0.95 -1.61,-2.03 -1.61,-3.38l0 -28.49c0,-39.02 -8.55,-69.94 -25.62,-92.9 -10,-13.1 -20.63,-19.71 -31.58,-19.71 -2.9,0 -5.16,0.81 -6.61,2.43 -1.94,1.75 -2.9,4.72 -2.9,8.64l0 275.73 15.15 0c12.72,0 25.45,-4.05 38.02,-12.02 12.57,-8.1 24.32,-22.01 35.44,-41.86 10.96,-19.98 19.33,-41.59 25.3,-65.08 9.83,-37.81 14.66,-67.52 14.66,-88.85l0 -26.06c2.26,-2.84 4.35,-4.32 6.28,-4.32 1.93,0 3.54,0.4 4.68,1.21 1.12,0.81 1.61,1.76 1.61,3.11l0 244.4 -268.42 0c-2.25,0 -3.86,-0.54 -5.15,-1.49 -1.29,-0.94 -1.94,-2.16 -1.94,-3.37 0,-1.49 0.65,-2.7 1.94,-3.51 1.29,-0.95 3.06,-1.35 5.15,-1.35l30.62 0 0 -576.03z"/>
 </g>
 <g id="Layer_x0020_1_4">
  <metadata id="CorelCorpID_1Corel-Layer"/>
 </g>
</svg>
